HIERARCHY
ROOT SpineBase
{
  OFFSET 0.000000 0.000000 0.000000
  CHANNELS 6 Xposition Yposition Zposition Zrotation Xrotation Yrotation
  JOINT SpineMid
  {
    OFFSET -0.000000 31.665945 0.000000
    CHANNELS 3 Zrotation Xrotation Yrotation
    JOINT SpineShoulder
    {
      OFFSET 0.022822 23.526820 -0.761186
      CHANNELS 3 Zrotation Xrotation Yrotation
      JOINT Neck
      {
        OFFSET 0.026304 7.786764 -0.573110
        CHANNELS 3 Zrotation Xrotation Yrotation
        JOINT Head
        {
          OFFSET 5.903748 12.656563 4.771037
          CHANNELS 3 Zrotation Xrotation Yrotation
          End Site
          {
            OFFSET 0 0 0
          }
        }
      }
      JOINT ShoulderLeft
      {
        OFFSET -12.069029 -1.902677 -11.104032
        CHANNELS 3 Zrotation Xrotation Yrotation
        JOINT ElbowLeft
        {
          OFFSET -7.894810 -21.975764 -7.048405
          CHANNELS 3 Zrotation Xrotation Yrotation
          JOINT WristLeft
          {
            OFFSET 19.340159 -13.809074 -5.114124
            CHANNELS 3 Zrotation Xrotation Yrotation
            JOINT HandLeft
            {
              OFFSET 5.698197 -0.616063 2.698351
              CHANNELS 3 Zrotation Xrotation Yrotation
              JOINT HandTipLeft
              {
                OFFSET 6.758493 1.767451 -2.341652
                CHANNELS 3 Zrotation Xrotation Yrotation
                End Site
                {
                  OFFSET 0 0 0
                }
              }
              JOINT ThumbLeft
              {
                OFFSET 1.691332 -3.804068 1.136702
                CHANNELS 3 Zrotation Xrotation Yrotation
                End Site
                {
                  OFFSET 0 0 0
                }
              }
            }
          }
        }
      }
      JOINT ShoulderRight
      {
        OFFSET 14.177269 -6.757651 11.221252
        CHANNELS 3 Zrotation Xrotation Yrotation
        JOINT ElbowRight
        {
          OFFSET 2.190157 -28.344494 6.766645
          CHANNELS 3 Zrotation Xrotation Yrotation
          JOINT WristRight
          {
            OFFSET 1.046132 -23.907350 -1.472154
            CHANNELS 3 Zrotation Xrotation Yrotation
            JOINT HandRight
            {
              OFFSET 0.861028 -4.579936 0.405647
              CHANNELS 3 Zrotation Xrotation Yrotation
              JOINT HandTipRight
              {
                OFFSET 1.574485 -4.710934 0.647288
                CHANNELS 3 Zrotation Xrotation Yrotation
                End Site
                {
                  OFFSET 0 0 0
                }
              }
              JOINT ThumbRight
              {
                OFFSET -2.946489 0.894620 -1.487394
                CHANNELS 3 Zrotation Xrotation Yrotation
                End Site
                {
                  OFFSET 0 0 0
                }
              }
            }
          }
        }
      }
    }
  }
  JOINT HipLeft
  {
    OFFSET -5.095373 1.807783 -7.764730
    CHANNELS 3 Zrotation Xrotation Yrotation
    JOINT KneeLeft
    {
      OFFSET -9.180877 -37.435164 -5.848012
      CHANNELS 3 Zrotation Xrotation Yrotation
      JOINT AnkleLeft
      {
        OFFSET -11.173274 -35.602932 -3.864911
        CHANNELS 3 Zrotation Xrotation Yrotation
        JOINT FootLeft
        {
          OFFSET -2.940758 -6.416813 -8.573213
          CHANNELS 3 Zrotation Xrotation Yrotation
          End Site
          {
            OFFSET 0 0 0
          }
        }
      }
    }
  }
  JOINT HipRight
  {
    OFFSET 5.730941 -0.098908 0.655107
    CHANNELS 3 Zrotation Xrotation Yrotation
    JOINT KneeRight
    {
      OFFSET -1.835526 -37.350629 2.471690
      CHANNELS 3 Zrotation Xrotation Yrotation
      JOINT AnkleRight
      {
        OFFSET -6.317375 -34.684366 6.272734
        CHANNELS 3 Zrotation Xrotation Yrotation
        JOINT FootRight
        {
          OFFSET 0.693098 -8.410604 -5.027819
          CHANNELS 3 Zrotation Xrotation Yrotation
          End Site
          {
            OFFSET 0 0 0
          }
        }
      }
    }
  }
}
MOTION
Frames: 13
Frame Time: 0.033333
-30.923532 81.623671 349.135537 0.000000 0.000000 -37.872906 -0.000000 0.000000 37.872906 -0.000000 0.000000 0.000000 -0.000000 0.000000 0.000000 0.000000 0.000000 0.000000 -0.000000 0.000000 0.000000 -0.000000 0.000000 0.000000 -0.000000 0.000000 0.000000 -0.000000 0.000000 0.000000 0.000000 0.000000 0.000000 0.000000 0.000000 0.000000 -0.000000 0.000000 0.000000 -0.000000 0.000000 0.000000 -0.000000 0.000000 0.000000 -0.000000 0.000000 0.000000 0.000000 0.000000 0.000000 0.000000 0.000000 0.000000 -0.000000 0.000000 37.872906 -0.000000 0.000000 0.000000 -0.000000 0.000000 0.000000 0.000000 0.000000 0.000000 -0.000000 0.000000 37.872906 -0.000000 0.000000 0.000000 -0.000000 0.000000 0.000000 0.000000 0.000000 0.000000
-31.373838 81.711095 348.304149 0.190343 0.113412 -39.052818 -0.076360 -0.207995 39.052491 -0.000000 0.000000 0.000000 -0.000000 0.000000 0.000000 0.000000 0.000000 0.000000 0.185038 0.881619 -0.376788 0.912994 -1.220184 -0.481621 -0.541151 0.152452 1.553504 -2.536110 0.706359 -4.924052 0.000000 0.000000 0.000000 0.000000 0.000000 0.000000 -0.000000 0.000000 0.000000 1.596012 1.425893 -0.055673 -1.331261 4.185167 1.093191 2.968984 -6.091054 -0.450609 0.000000 0.000000 0.000000 0.000000 0.000000 0.000000 -0.076360 -0.207995 39.052491 0.374480 -0.991894 0.274422 0.709330 1.549560 -1.983002 0.000000 0.000000 0.000000 -0.076360 -0.207995 39.052491 0.052768 -0.880545 0.170111 2.926988 2.493946 -1.881726 0.000000 0.000000 0.000000
-31.777781 81.785023 347.578524 0.358733 0.176894 -40.015677 -0.161004 -0.366139 40.014609 -0.000000 0.000000 0.000000 -0.000000 0.000000 0.000000 0.000000 0.000000 0.000000 0.359378 1.597025 -0.691723 1.663689 -2.242738 -0.886579 -0.685875 0.251167 3.512990 -5.086662 1.511133 -9.581276 0.000000 0.000000 0.000000 0.000000 0.000000 0.000000 0.504278 1.362435 0.220220 2.512340 1.352314 -0.298122 -2.306777 7.836077 2.030883 5.049647 -11.071234 -0.322258 0.000000 0.000000 0.000000 0.000000 0.000000 0.000000 -0.161004 -0.366139 40.014609 0.734823 -1.886331 0.526364 1.456057 2.785248 -3.893091 0.000000 0.000000 0.000000 -0.161004 -0.366139 40.014609 0.106866 -1.648851 0.320425 5.428230 4.263163 -3.618938 0.000000 0.000000 0.000000
-32.135360 81.845456 346.958663 0.505449 0.190728 -40.768188 -0.258270 -0.474503 40.766277 -0.000000 0.000000 0.000000 -0.000000 0.000000 0.000000 0.000000 0.000000 0.000000 0.520829 2.148515 -0.944602 2.247101 -3.068110 -1.228356 -0.416221 0.326139 5.933135 -7.680872 2.430779 -14.058122 0.000000 0.000000 0.000000 0.000000 0.000000 0.000000 0.648978 1.857839 0.288966 3.614004 2.023810 -0.407408 -2.866570 10.847383 2.798021 6.311050 -14.816002 0.095147 0.000000 0.000000 0.000000 0.000000 0.000000 0.000000 -0.258270 -0.474503 40.766277 1.079029 -2.680935 0.753755 2.227557 3.702877 -5.717663 0.000000 0.000000 0.000000 -0.258270 -0.474503 40.766277 0.161271 -2.302567 0.450327 7.486147 5.354431 -5.138526 0.000000 0.000000 0.000000
-32.446575 81.892393 346.444565 0.630722 0.155092 -41.315251 -0.371352 -0.532884 41.312671 -0.000000 0.000000 0.000000 -0.000000 0.000000 0.000000 0.000000 0.000000 0.000000 0.667730 2.538033 -1.135172 2.659328 -3.697004 -1.517997 0.262664 0.415230 8.827731 -10.334158 3.488608 -18.397021 0.000000 0.000000 0.000000 0.000000 0.000000 0.000000 0.724230 2.232826 0.332718 4.617226 2.698137 -0.493729 -2.950439 13.151675 3.386510 6.755325 -17.261486 0.570629 0.000000 0.000000 0.000000 0.000000 0.000000 0.000000 -0.371352 -0.532884 41.312671 1.405252 -3.373787 0.954638 3.012047 4.299547 -7.443701 0.000000 0.000000 0.000000 0.260721 0.210519 41.371439 -0.753456 -2.980567 0.501608 9.091257 5.810567 -6.389668 0.000000 0.000000 0.000000
-32.711426 81.925834 346.036230 0.734736 0.070049 -41.659753 -0.502381 -0.540708 41.656933 -0.000000 0.000000 0.000000 -0.000000 0.000000 0.000000 0.000000 0.000000 0.000000 0.798927 2.767017 -1.263118 2.897533 -4.129919 -1.763875 1.314083 0.558537 12.148075 -13.041757 4.697864 -22.563247 0.000000 0.000000 0.000000 0.000000 0.000000 0.000000 0.730731 2.488925 0.352576 5.526459 3.380425 -0.558894 -2.494876 14.695898 3.796926 6.347407 -18.361451 0.933312 0.000000 0.000000 0.000000 0.000000 0.000000 0.000000 -0.502381 -0.540708 41.656933 1.711822 -3.963352 1.127190 3.798914 4.573175 -9.058076 0.000000 0.000000 0.000000 0.221625 0.363423 41.724113 -0.878425 -3.454443 0.579879 10.239244 5.662300 -7.339458 0.000000 0.000000 0.000000
-32.929631 81.928191 345.785389 0.787509 -0.074881 -41.725763 -0.637598 -0.468247 41.723672 -0.000000 0.000000 0.000000 0.162702 -1.072930 0.442535 0.000000 0.000000 0.000000 0.831873 2.730259 -1.261271 3.570961 -4.167821 -2.070068 1.758910 1.393783 19.787981 -16.451237 6.668417 -31.104496 0.000000 0.000000 0.000000 0.000000 0.000000 0.000000 0.442902 2.876115 0.318711 6.449195 2.836225 -0.510636 -0.097843 17.397483 4.170559 3.818490 -17.439234 1.067886 0.000000 0.000000 0.000000 0.000000 0.000000 0.000000 -0.637598 -0.468247 41.723672 2.034997 -4.396450 1.249728 5.568486 4.555408 -12.085554 0.000000 0.000000 0.000000 0.113526 0.623904 41.792414 -1.012496 -3.874874 0.632519 11.119260 4.699484 -8.069607 0.000000 0.000000 0.000000
-33.057533 81.907642 345.677164 0.842398 -0.279065 -41.385765 0.076371 -0.203511 41.414854 -0.083083 -0.132636 0.028181 0.099862 -1.469429 0.641213 0.000000 0.000000 0.000000 0.187606 3.200913 -1.279149 4.299490 -4.283338 -2.669008 -0.690259 2.718232 25.554946 -16.493536 6.855477 -36.651379 0.000000 0.000000 0.000000 0.000000 0.000000 0.000000 -0.643651 3.616190 0.191850 7.687630 2.493853 -0.441765 -0.554944 20.992495 4.630218 1.434037 -18.327603 0.379750 0.000000 0.000000 0.000000 0.000000 0.000000 0.000000 -0.816526 -0.347561 41.385340 2.278098 -4.715766 1.341575 4.422816 2.511356 -9.904587 0.000000 0.000000 0.000000 -0.048087 0.884499 41.453394 -1.092218 -4.094579 0.656624 11.006433 3.017272 -8.115217 0.000000 0.000000 0.000000
-33.185747 81.912351 345.569486 0.903484 -0.524996 -41.164387 0.095190 -0.230280 41.198322 -0.085891 -0.143576 0.031437 0.379969 -1.918486 0.865997 0.000000 0.000000 0.000000 0.335613 3.260265 -1.276080 3.468569 -4.081027 -2.560921 2.423711 2.542877 26.856704 -19.916339 7.748154 -34.787456 0.000000 0.000000 0.000000 0.000000 0.000000 0.000000 -0.701968 3.569095 0.161932 8.238571 4.266427 -0.534917 -0.230720 17.560770 4.368882 0.503702 -15.109868 0.498712 0.000000 0.000000 0.000000 0.000000 0.000000 0.000000 -1.025713 -0.199493 41.166741 2.517537 -5.016223 1.428777 5.397403 2.401763 -11.668727 0.000000 0.000000 0.000000 -0.181473 1.125587 41.238053 -1.182932 -4.173027 0.665102 10.856555 1.409433 -8.114942 0.000000 0.000000 0.000000
-33.301584 81.920136 345.483510 0.943815 -0.791502 -40.978963 0.093305 -0.235093 41.017034 -0.092692 -0.143702 0.033381 0.316113 -1.900365 0.994577 0.000000 0.000000 0.000000 0.447297 3.248955 -1.231014 1.927620 -3.901479 -2.358384 7.345585 1.549299 23.899198 -22.095916 7.432940 -27.194758 0.000000 0.000000 0.000000 0.000000 0.000000 0.000000 -0.703967 3.459575 0.136756 8.809203 6.330523 -0.672302 -0.314953 11.275933 3.849735 1.179632 -8.513248 1.667796 0.000000 0.000000 0.000000 0.000000 0.000000 0.000000 -1.231562 -0.021464 40.985252 2.698607 -5.242103 1.495234 10.377908 4.895187 -20.518940 0.000000 0.000000 0.000000 -0.352579 1.422811 41.055920 -1.160305 -4.301352 0.699204 10.276514 -0.645624 -7.941966 0.000000 0.000000 0.000000
-33.410901 81.919994 345.360194 0.966252 -0.981364 -40.746103 0.079893 -0.235329 40.786696 -0.097978 -0.131471 0.034050 0.457981 -2.058831 1.095380 0.000000 0.000000 0.000000 0.658690 3.089581 -1.193612 0.809163 -3.453016 -1.983692 11.947584 -0.343691 19.345247 -26.143686 7.493034 -19.481614 0.000000 0.000000 0.000000 0.000000 0.000000 0.000000 -0.620882 3.140122 0.117057 9.302804 8.357169 -0.853008 0.697069 5.598747 3.577833 0.213020 -1.803703 2.401203 0.000000 0.000000 0.000000 0.000000 0.000000 0.000000 -1.372562 0.112698 40.755729 2.808626 -5.419255 1.549784 13.415083 5.874505 -25.753952 0.000000 0.000000 0.000000 -0.368791 1.577412 40.832273 -1.115350 -4.298993 0.733406 8.935542 -2.770519 -7.332453 0.000000 0.000000 0.000000
-33.502590 81.917287 345.222343 0.965204 -1.098687 -40.477157 0.050044 -0.215693 40.518311 -0.098820 -0.111419 0.033643 0.615354 -2.504084 1.289899 0.000000 0.000000 0.000000 0.770301 2.932601 -1.149653 -0.439166 -3.147581 -1.557605 17.056519 -1.963353 17.429004 -30.589320 9.084902 -16.925028 0.000000 0.000000 0.000000 0.000000 0.000000 0.000000 -0.447743 3.005695 0.135238 9.815889 9.706668 -1.043885 5.885121 -0.382075 4.194748 -5.524607 3.242628 1.751295 0.000000 0.000000 0.000000 0.000000 0.000000 0.000000 -1.447388 0.209036 40.489052 2.905091 -5.569604 1.596225 14.351710 6.143211 -27.475857 0.000000 0.000000 0.000000 -0.270342 1.627811 40.574997 -1.116612 -4.219578 0.753337 9.105762 -2.747718 -7.537006 0.000000 0.000000 0.000000
-33.580775 81.908514 345.085396 0.960816 -1.167042 -40.223777 0.026310 -0.198139 40.264995 -0.101649 -0.090343 0.032951 0.642529 -2.838899 1.459498 0.000000 0.000000 0.000000 0.830840 2.787468 -1.105765 -1.230033 -2.907266 -1.255025 20.132502 -3.813410 13.792060 -32.882899 8.909403 -12.006907 0.000000 0.000000 0.000000 0.000000 0.000000 0.000000 -0.296378 2.894642 0.154099 9.989417 10.330632 -1.155723 14.042228 -2.987379 5.928674 -14.799734 5.930391 0.602736 0.000000 0.000000 0.000000 0.000000 0.000000 0.000000 -1.487248 0.270442 40.237073 2.956462 -5.664924 1.626366 10.767671 5.913704 -21.852901 0.000000 0.000000 0.000000 -0.125526 1.598456 40.333911 -1.194013 -4.075173 0.747359 9.662630 -2.081626 -7.872394 0.000000 0.000000 0.000000
